STARTFONT 2.1
FONT -Cronyx-Helvetica-Medium-R-Normal--10-100-75-75-P-56-KOI8-C
SIZE 10 72 72
FONTBOUNDINGBOX 9 12 0 -2
STARTPROPERTIES 23
DEFAULT_CHAR 32
FONT_ASCENT 10
FONT_DESCENT 2
SPACING "P"
FONTNAME_REGISTRY ""
FOUNDRY "Cronyx"
FAMILY_NAME "Helvetica"
WEIGHT_NAME "Medium"
SLANT "R"
SETWIDTH_NAME "Normal"
ADD_STYLE_NAME ""
AVERAGE_WIDTH 56
CHARSET_REGISTRY "KOI8"
CHARSET_ENCODING "C"
PIXEL_SIZE 10
POINT_SIZE 100
RESOLUTION_X 75
RESOLUTION_Y 75
COPYRIGHT "Copyright (C) 1990, 1991 EWT Consulting, Portions Copyright (C) 1996-1997 by Andrey A. Chernov, Moscow, Russia."
_XMBDFED_INFO "Edited with xmbdfed 3.8."
_XFREE86_GLYPH_RANGES "3_10 26_27 30_255"
X_HEIGHT 6
CAP_HEIGHT 8
ENDPROPERTIES
CHARS 236
STARTCHAR multi
ENCODING 3
SWIDTH 400 0
DWIDTH 4 0
BBX 3 4 2 1
BITMAP
A0
40
40
A0
ENDCHAR
STARTCHAR divide
ENCODING 4
SWIDTH 800 0
DWIDTH 8 0
BBX 5 5 2 0
BITMAP
20
00
F8
00
20
ENDCHAR
STARTCHAR promille
ENCODING 5
SWIDTH 700 0
DWIDTH 7 0
BBX 6 8 1 0
BITMAP
44
A8
B0
60
68
D4
D4
28
ENDCHAR
STARTCHAR approx
ENCODING 6
SWIDTH 800 0
DWIDTH 8 0
BBX 5 6 2 0
BITMAP
48
A8
90
48
A8
90
ENDCHAR
STARTCHAR degree
ENCODING 7
SWIDTH 500 0
DWIDTH 5 0
BBX 4 8 1 -2
BITMAP
90
90
90
90
90
F0
80
80
ENDCHAR
STARTCHAR plusminus
ENCODING 8
SWIDTH 600 0
DWIDTH 6 0
BBX 6 6 0 0
BITMAP
10
10
7C
10
10
7C
ENDCHAR
STARTCHAR pilcrow
ENCODING 9
SWIDTH 600 0
DWIDTH 6 0
BBX 5 8 1 0
BITMAP
78
E8
E8
E8
68
28
28
28
ENDCHAR
STARTCHAR ddagger
ENCODING 10
SWIDTH 800 0
DWIDTH 8 0
BBX 5 8 1 0
BITMAP
20
20
F8
20
20
F8
20
20
ENDCHAR
STARTCHAR lessequal
ENCODING 26
SWIDTH 800 0
DWIDTH 8 0
BBX 5 6 2 0
BITMAP
08
30
C0
30
08
F8
ENDCHAR
STARTCHAR greaterequal
ENCODING 27
SWIDTH 800 0
DWIDTH 8 0
BBX 5 6 2 0
BITMAP
80
60
18
60
80
F8
ENDCHAR
STARTCHAR currency
ENCODING 30
SWIDTH 500 0
DWIDTH 5 0
BBX 5 6 0 0
BITMAP
D8
70
88
88
70
D8
ENDCHAR
STARTCHAR twosuperior
ENCODING 31
SWIDTH 400 0
DWIDTH 4 0
BBX 3 5 1 3
BITMAP
C0
20
40
80
E0
ENDCHAR
STARTCHAR space
ENCODING 32
SWIDTH 200 0
DWIDTH 2 0
BBX 0 0 0 0
BITMAP
ENDCHAR
STARTCHAR exclam
ENCODING 33
SWIDTH 200 0
DWIDTH 2 0
BBX 1 8 1 0
BITMAP
80
80
80
80
80
80
00
80
ENDCHAR
STARTCHAR quotedbl
ENCODING 34
SWIDTH 400 0
DWIDTH 4 0
BBX 3 3 1 5
BITMAP
A0
A0
A0
ENDCHAR
STARTCHAR numbersign
ENCODING 35
SWIDTH 700 0
DWIDTH 7 0
BBX 7 8 0 0
BITMAP
14
14
7E
28
28
FC
50
50
ENDCHAR
STARTCHAR dollar
ENCODING 36
SWIDTH 400 0
DWIDTH 4 0
BBX 3 9 1 -1
BITMAP
40
40
A0
80
40
20
A0
40
40
ENDCHAR
STARTCHAR percent
ENCODING 37
SWIDTH 700 0
DWIDTH 7 0
BBX 6 8 1 0
BITMAP
44
A8
A8
50
28
54
54
88
ENDCHAR
STARTCHAR ampersand
ENCODING 38
SWIDTH 600 0
DWIDTH 6 0
BBX 5 8 1 0
BITMAP
20
50
50
20
68
90
90
68
ENDCHAR
STARTCHAR quotesingle
ENCODING 39
SWIDTH 200 0
DWIDTH 2 0
BBX 1 3 1 5
BITMAP
80
80
80
ENDCHAR
STARTCHAR parenleft
ENCODING 40
SWIDTH 300 0
DWIDTH 3 0
BBX 2 10 1 -2
BITMAP
40
40
80
80
80
80
80
80
40
40
ENDCHAR
STARTCHAR parenright
ENCODING 41
SWIDTH 300 0
DWIDTH 3 0
BBX 2 10 1 -2
BITMAP
80
80
40
40
40
40
40
40
80
80
ENDCHAR
STARTCHAR asterisk
ENCODING 42
SWIDTH 400 0
DWIDTH 4 0
BBX 3 4 1 4
BITMAP
40
E0
40
A0
ENDCHAR
STARTCHAR plus
ENCODING 43
SWIDTH 800 0
DWIDTH 8 0
BBX 5 5 2 0
BITMAP
20
20
F8
20
20
ENDCHAR
STARTCHAR comma
ENCODING 44
SWIDTH 200 0
DWIDTH 2 0
BBX 1 3 1 -1
BITMAP
80
80
80
ENDCHAR
STARTCHAR hyphen
ENCODING 45
SWIDTH 600 0
DWIDTH 6 0
BBX 4 2 2 1
BITMAP
F0
10
ENDCHAR
STARTCHAR period
ENCODING 46
SWIDTH 200 0
DWIDTH 2 0
BBX 1 2 1 0
BITMAP
80
80
ENDCHAR
STARTCHAR slash
ENCODING 47
SWIDTH 400 0
DWIDTH 4 0
BBX 3 9 1 -1
BITMAP
20
20
20
40
40
40
80
80
80
ENDCHAR
STARTCHAR zero
ENCODING 48
SWIDTH 400 0
DWIDTH 4 0
BBX 3 8 1 0
BITMAP
40
A0
A0
A0
A0
A0
A0
40
ENDCHAR
STARTCHAR one
ENCODING 49
SWIDTH 400 0
DWIDTH 4 0
BBX 2 8 1 0
BITMAP
40
C0
40
40
40
40
40
40
ENDCHAR
STARTCHAR two
ENCODING 50
SWIDTH 400 0
DWIDTH 4 0
BBX 3 8 1 0
BITMAP
40
A0
A0
20
40
40
80
E0
ENDCHAR
STARTCHAR three
ENCODING 51
SWIDTH 400 0
DWIDTH 4 0
BBX 3 8 1 0
BITMAP
40
A0
20
40
20
A0
A0
40
ENDCHAR
STARTCHAR four
ENCODING 52
SWIDTH 400 0
DWIDTH 4 0
BBX 3 7 1 0
BITMAP
20
A0
A0
A0
E0
20
20
ENDCHAR
STARTCHAR five
ENCODING 53
SWIDTH 400 0
DWIDTH 4 0
BBX 3 8 1 0
BITMAP
60
80
80
C0
20
20
A0
40
ENDCHAR
STARTCHAR six
ENCODING 54
SWIDTH 400 0
DWIDTH 4 0
BBX 3 8 1 0
BITMAP
40
A0
80
C0
A0
A0
A0
40
ENDCHAR
STARTCHAR seven
ENCODING 55
SWIDTH 400 0
DWIDTH 4 0
BBX 3 8 1 0
BITMAP
E0
20
20
40
40
40
80
80
ENDCHAR
STARTCHAR eight
ENCODING 56
SWIDTH 400 0
DWIDTH 4 0
BBX 3 8 1 0
BITMAP
40
A0
A0
40
A0
A0
A0
40
ENDCHAR
STARTCHAR nine
ENCODING 57
SWIDTH 400 0
DWIDTH 4 0
BBX 3 8 1 0
BITMAP
40
A0
A0
A0
60
20
A0
40
ENDCHAR
STARTCHAR colon
ENCODING 58
SWIDTH 200 0
DWIDTH 2 0
BBX 1 6 1 0
BITMAP
80
80
00
00
80
80
ENDCHAR
STARTCHAR semicolon
ENCODING 59
SWIDTH 200 0
DWIDTH 2 0
BBX 1 7 1 -1
BITMAP
80
80
00
00
80
80
80
ENDCHAR
STARTCHAR less
ENCODING 60
SWIDTH 800 0
DWIDTH 8 0
BBX 5 5 2 0
BITMAP
08
30
C0
30
08
ENDCHAR
STARTCHAR equal
ENCODING 61
SWIDTH 800 0
DWIDTH 8 0
BBX 5 3 2 1
BITMAP
F8
00
F8
ENDCHAR
STARTCHAR greater
ENCODING 62
SWIDTH 800 0
DWIDTH 8 0
BBX 5 5 2 0
BITMAP
80
60
18
60
80
ENDCHAR
STARTCHAR question
ENCODING 63
SWIDTH 400 0
DWIDTH 4 0
BBX 3 8 1 0
BITMAP
C0
20
20
40
80
80
00
80
ENDCHAR
STARTCHAR at
ENCODING 64
SWIDTH 800 0
DWIDTH 8 0
BBX 7 9 1 -1
BITMAP
38
44
9A
AA
AA
AA
94
40
38
ENDCHAR
STARTCHAR A
ENCODING 65
SWIDTH 600 0
DWIDTH 6 0
BBX 5 8 1 0
BITMAP
20
20
50
50
50
70
88
88
ENDCHAR
STARTCHAR B
ENCODING 66
SWIDTH 600 0
DWIDTH 6 0
BBX 5 8 1 0
BITMAP
F0
88
88
F0
88
88
88
F0
ENDCHAR
STARTCHAR C
ENCODING 67
SWIDTH 600 0
DWIDTH 6 0
BBX 5 8 1 0
BITMAP
70
88
80
80
80
88
88
70
ENDCHAR
STARTCHAR D
ENCODING 68
SWIDTH 600 0
DWIDTH 6 0
BBX 5 8 1 0
BITMAP
F0
88
88
88
88
88
88
F0
ENDCHAR
STARTCHAR E
ENCODING 69
SWIDTH 500 0
DWIDTH 5 0
BBX 4 8 1 0
BITMAP
F0
80
80
F0
80
80
80
F0
ENDCHAR
STARTCHAR F
ENCODING 70
SWIDTH 500 0
DWIDTH 5 0
BBX 4 8 1 0
BITMAP
F0
80
80
F0
80
80
80
80
ENDCHAR
STARTCHAR G
ENCODING 71
SWIDTH 600 0
DWIDTH 6 0
BBX 5 8 1 0
BITMAP
70
88
80
80
98
88
88
70
ENDCHAR
STARTCHAR H
ENCODING 72
SWIDTH 600 0
DWIDTH 6 0
BBX 5 8 1 0
BITMAP
88
88
88
F8
88
88
88
88
ENDCHAR
STARTCHAR I
ENCODING 73
SWIDTH 200 0
DWIDTH 2 0
BBX 1 8 1 0
BITMAP
80
80
80
80
80
80
80
80
ENDCHAR
STARTCHAR J
ENCODING 74
SWIDTH 400 0
DWIDTH 4 0
BBX 3 8 1 0
BITMAP
20
20
20
20
20
A0
A0
40
ENDCHAR
STARTCHAR K
ENCODING 75
SWIDTH 500 0
DWIDTH 5 0
BBX 4 8 1 0
BITMAP
90
A0
A0
C0
A0
A0
90
90
ENDCHAR
STARTCHAR L
ENCODING 76
SWIDTH 500 0
DWIDTH 5 0
BBX 4 8 1 0
BITMAP
80
80
80
80
80
80
80
F0
ENDCHAR
STARTCHAR M
ENCODING 77
SWIDTH 600 0
DWIDTH 6 0
BBX 5 8 1 0
BITMAP
88
D8
A8
A8
A8
A8
A8
A8
ENDCHAR
STARTCHAR N
ENCODING 78
SWIDTH 600 0
DWIDTH 6 0
BBX 5 8 1 0
BITMAP
88
88
C8
A8
A8
98
88
88
ENDCHAR
STARTCHAR O
ENCODING 79
SWIDTH 600 0
DWIDTH 6 0
BBX 5 8 1 0
BITMAP
70
88
88
88
88
88
88
70
ENDCHAR
STARTCHAR P
ENCODING 80
SWIDTH 500 0
DWIDTH 5 0
BBX 4 8 1 0
BITMAP
E0
90
90
90
E0
80
80
80
ENDCHAR
STARTCHAR Q
ENCODING 81
SWIDTH 600 0
DWIDTH 6 0
BBX 5 8 1 0
BITMAP
70
88
88
88
88
A8
90
68
ENDCHAR
STARTCHAR R
ENCODING 82
SWIDTH 500 0
DWIDTH 5 0
BBX 4 8 1 0
BITMAP
E0
90
90
90
E0
90
90
90
ENDCHAR
STARTCHAR S
ENCODING 83
SWIDTH 500 0
DWIDTH 5 0
BBX 4 8 1 0
BITMAP
60
90
80
60
10
90
90
60
ENDCHAR
STARTCHAR T
ENCODING 84
SWIDTH 400 0
DWIDTH 4 0
BBX 3 8 1 0
BITMAP
E0
40
40
40
40
40
40
40
ENDCHAR
STARTCHAR U
ENCODING 85
SWIDTH 600 0
DWIDTH 6 0
BBX 5 8 1 0
BITMAP
88
88
88
88
88
88
88
70
ENDCHAR
STARTCHAR V
ENCODING 86
SWIDTH 600 0
DWIDTH 6 0
BBX 5 8 1 0
BITMAP
88
88
88
50
50
50
20
20
ENDCHAR
STARTCHAR W
ENCODING 87
SWIDTH 800 0
DWIDTH 8 0
BBX 7 8 1 0
BITMAP
92
92
AA
AA
AA
44
44
44
ENDCHAR
STARTCHAR X
ENCODING 88
SWIDTH 600 0
DWIDTH 6 0
BBX 5 8 1 0
BITMAP
88
50
50
20
20
50
50
88
ENDCHAR
STARTCHAR Y
ENCODING 89
SWIDTH 600 0
DWIDTH 6 0
BBX 5 8 1 0
BITMAP
88
88
50
50
20
20
20
20
ENDCHAR
STARTCHAR Z
ENCODING 90
SWIDTH 600 0
DWIDTH 6 0
BBX 5 8 1 0
BITMAP
F8
10
10
20
20
40
40
F8
ENDCHAR
STARTCHAR bracketleft
ENCODING 91
SWIDTH 300 0
DWIDTH 3 0
BBX 2 10 1 -2
BITMAP
C0
80
80
80
80
80
80
80
80
C0
ENDCHAR
STARTCHAR backslash
ENCODING 92
SWIDTH 400 0
DWIDTH 4 0
BBX 3 9 1 -1
BITMAP
80
80
80
40
40
40
20
20
20
ENDCHAR
STARTCHAR bracketright
ENCODING 93
SWIDTH 300 0
DWIDTH 3 0
BBX 2 10 1 -2
BITMAP
C0
40
40
40
40
40
40
40
40
C0
ENDCHAR
STARTCHAR asciicircum
ENCODING 94
SWIDTH 800 0
DWIDTH 8 0
BBX 5 3 2 5
BITMAP
20
50
88
ENDCHAR
STARTCHAR underscore
ENCODING 95
SWIDTH 400 0
DWIDTH 4 0
BBX 4 1 0 -2
BITMAP
F0
ENDCHAR
STARTCHAR grave
ENCODING 96
SWIDTH 400 0
DWIDTH 4 0
BBX 2 2 1 6
BITMAP
80
40
ENDCHAR
STARTCHAR a
ENCODING 97
SWIDTH 400 0
DWIDTH 4 0
BBX 3 6 1 0
BITMAP
C0
20
60
A0
A0
60
ENDCHAR
STARTCHAR b
ENCODING 98
SWIDTH 500 0
DWIDTH 5 0
BBX 4 8 1 0
BITMAP
80
80
E0
90
90
90
90
E0
ENDCHAR
STARTCHAR c
ENCODING 99
SWIDTH 400 0
DWIDTH 4 0
BBX 3 6 1 0
BITMAP
60
80
80
80
80
60
ENDCHAR
STARTCHAR d
ENCODING 100
SWIDTH 500 0
DWIDTH 5 0
BBX 4 8 1 0
BITMAP
10
10
70
90
90
90
90
70
ENDCHAR
STARTCHAR e
ENCODING 101
SWIDTH 400 0
DWIDTH 4 0
BBX 3 6 1 0
BITMAP
40
A0
E0
80
A0
40
ENDCHAR
STARTCHAR f
ENCODING 102
SWIDTH 300 0
DWIDTH 3 0
BBX 2 8 1 0
BITMAP
40
80
80
C0
80
80
80
80
ENDCHAR
STARTCHAR g
ENCODING 103
SWIDTH 500 0
DWIDTH 5 0
BBX 4 8 1 -2
BITMAP
70
90
90
90
90
70
10
E0
ENDCHAR
STARTCHAR h
ENCODING 104
SWIDTH 500 0
DWIDTH 5 0
BBX 4 8 1 0
BITMAP
80
80
E0
90
90
90
90
90
ENDCHAR
STARTCHAR i
ENCODING 105
SWIDTH 200 0
DWIDTH 2 0
BBX 1 8 1 0
BITMAP
80
00
80
80
80
80
80
80
ENDCHAR
STARTCHAR j
ENCODING 106
SWIDTH 200 0
DWIDTH 2 0
BBX 2 10 0 -2
BITMAP
40
00
40
40
40
40
40
40
40
C0
ENDCHAR
STARTCHAR k
ENCODING 107
SWIDTH 400 0
DWIDTH 4 0
BBX 3 8 1 0
BITMAP
80
80
A0
A0
C0
A0
A0
A0
ENDCHAR
STARTCHAR l
ENCODING 108
SWIDTH 200 0
DWIDTH 2 0
BBX 1 8 1 0
BITMAP
80
80
80
80
80
80
80
80
ENDCHAR
STARTCHAR m
ENCODING 109
SWIDTH 600 0
DWIDTH 6 0
BBX 5 6 1 0
BITMAP
D0
A8
A8
A8
A8
A8
ENDCHAR
STARTCHAR n
ENCODING 110
SWIDTH 500 0
DWIDTH 5 0
BBX 4 6 1 0
BITMAP
E0
90
90
90
90
90
ENDCHAR
STARTCHAR o
ENCODING 111
SWIDTH 500 0
DWIDTH 5 0
BBX 4 6 1 0
BITMAP
60
90
90
90
90
60
ENDCHAR
STARTCHAR p
ENCODING 112
SWIDTH 500 0
DWIDTH 5 0
BBX 4 8 1 -2
BITMAP
E0
90
90
90
90
E0
80
80
ENDCHAR
STARTCHAR q
ENCODING 113
SWIDTH 500 0
DWIDTH 5 0
BBX 4 8 1 -2
BITMAP
70
90
90
90
90
70
10
10
ENDCHAR
STARTCHAR r
ENCODING 114
SWIDTH 300 0
DWIDTH 3 0
BBX 2 6 1 0
BITMAP
C0
80
80
80
80
80
ENDCHAR
STARTCHAR s
ENCODING 115
SWIDTH 400 0
DWIDTH 4 0
BBX 3 6 1 0
BITMAP
60
80
40
20
20
C0
ENDCHAR
STARTCHAR t
ENCODING 116
SWIDTH 300 0
DWIDTH 3 0
BBX 2 7 1 0
BITMAP
80
C0
80
80
80
80
40
ENDCHAR
STARTCHAR u
ENCODING 117
SWIDTH 500 0
DWIDTH 5 0
BBX 4 6 1 0
BITMAP
90
90
90
90
90
70
ENDCHAR
STARTCHAR v
ENCODING 118
SWIDTH 400 0
DWIDTH 4 0
BBX 3 6 1 0
BITMAP
A0
A0
A0
A0
40
40
ENDCHAR
STARTCHAR w
ENCODING 119
SWIDTH 600 0
DWIDTH 6 0
BBX 5 6 1 0
BITMAP
A8
A8
A8
A8
50
50
ENDCHAR
STARTCHAR x
ENCODING 120
SWIDTH 400 0
DWIDTH 4 0
BBX 3 6 1 0
BITMAP
A0
A0
40
40
A0
A0
ENDCHAR
STARTCHAR y
ENCODING 121
SWIDTH 400 0
DWIDTH 4 0
BBX 3 8 1 -2
BITMAP
A0
A0
A0
A0
40
40
40
80
ENDCHAR
STARTCHAR z
ENCODING 122
SWIDTH 400 0
DWIDTH 4 0
BBX 3 6 1 0
BITMAP
E0
20
40
40
80
E0
ENDCHAR
STARTCHAR braceleft
ENCODING 123
SWIDTH 400 0
DWIDTH 4 0
BBX 3 10 1 -2
BITMAP
20
40
40
40
80
40
40
40
40
20
ENDCHAR
STARTCHAR bar
ENCODING 124
SWIDTH 400 0
DWIDTH 4 0
BBX 1 10 2 -2
BITMAP
80
80
80
80
80
80
80
80
80
80
ENDCHAR
STARTCHAR braceright
ENCODING 125
SWIDTH 400 0
DWIDTH 4 0
BBX 3 10 1 -2
BITMAP
80
40
40
40
20
40
40
40
40
80
ENDCHAR
STARTCHAR asciitilde
ENCODING 126
SWIDTH 800 0
DWIDTH 8 0
BBX 5 3 2 5
BITMAP
48
A8
90
ENDCHAR
STARTCHAR not
ENCODING 127
SWIDTH 600 0
DWIDTH 6 0
BBX 4 2 2 1
BITMAP
F0
10
ENDCHAR
STARTCHAR afii10051
ENCODING 128
SWIDTH 500 0
DWIDTH 5 0
BBX 5 8 0 0
BITMAP
F0
40
70
48
48
48
58
50
ENDCHAR
STARTCHAR afii10052
ENCODING 129
SWIDTH 500 0
DWIDTH 5 0
BBX 4 10 1 0
BITMAP
20
40
F0
80
80
80
80
80
80
80
ENDCHAR
STARTCHAR cedilla
ENCODING 130
SWIDTH 300 0
DWIDTH 3 0
BBX 2 3 1 -1
BITMAP
80
40
C0
ENDCHAR
STARTCHAR afii10100
ENCODING 131
SWIDTH 400 0
DWIDTH 4 0
BBX 3 8 1 0
BITMAP
20
40
E0
80
80
80
80
80
ENDCHAR
STARTCHAR quotedblbase
ENCODING 132
SWIDTH 500 0
DWIDTH 5 0
BBX 4 3 1 -2
BITMAP
F0
50
50
ENDCHAR
STARTCHAR ellipsis
ENCODING 133
SWIDTH 700 0
DWIDTH 7 0
BBX 5 2 1 0
BITMAP
A8
A8
ENDCHAR
STARTCHAR dagger
ENCODING 134
SWIDTH 800 0
DWIDTH 8 0
BBX 5 8 1 0
BITMAP
20
20
F8
20
20
20
20
20
ENDCHAR
STARTCHAR section
ENCODING 135
SWIDTH 400 0
DWIDTH 4 0
BBX 3 9 1 0
BITMAP
40
A0
80
40
A0
40
20
A0
40
ENDCHAR
STARTCHAR Euro
ENCODING 136
SWIDTH 600 0
DWIDTH 6 0
BBX 6 8 0 0
BITMAP
38
44
F0
40
F0
44
44
38
ENDCHAR
STARTCHAR dieresis
ENCODING 137
SWIDTH 400 0
DWIDTH 4 0
BBX 3 2 1 6
BITMAP
A0
A0
ENDCHAR
STARTCHAR afii10058
ENCODING 138
SWIDTH 700 0
DWIDTH 7 0
BBX 6 8 1 0
BITMAP
30
50
50
58
54
54
54
98
ENDCHAR
STARTCHAR guilsinglleft
ENCODING 139
SWIDTH 400 0
DWIDTH 4 0
BBX 3 5 1 0
BITMAP
20
40
C0
40
20
ENDCHAR
STARTCHAR afii10059
ENCODING 140
SWIDTH 600 0
DWIDTH 6 0
BBX 5 8 1 0
BITMAP
A0
A0
A0
F0
A8
A8
A8
B0
ENDCHAR
STARTCHAR afii10061
ENCODING 141
SWIDTH 500 0
DWIDTH 5 0
BBX 4 10 1 0
BITMAP
20
40
90
A0
A0
C0
A0
A0
90
90
ENDCHAR
STARTCHAR afii10060
ENCODING 142
SWIDTH 500 0
DWIDTH 5 0
BBX 5 8 0 0
BITMAP
F0
40
70
48
48
48
48
48
ENDCHAR
STARTCHAR afii10145
ENCODING 143
SWIDTH 600 0
DWIDTH 6 0
BBX 5 10 1 -2
BITMAP
88
88
88
88
88
88
88
F8
20
20
ENDCHAR
STARTCHAR afii10099
ENCODING 144
SWIDTH 500 0
DWIDTH 5 0
BBX 5 11 0 -2
BITMAP
40
F0
40
70
48
48
48
48
48
10
20
ENDCHAR
STARTCHAR quoteleft
ENCODING 145
SWIDTH 300 0
DWIDTH 3 0
BBX 2 3 1 5
BITMAP
80
80
C0
ENDCHAR
STARTCHAR quoteright
ENCODING 146
SWIDTH 300 0
DWIDTH 3 0
BBX 2 3 1 5
BITMAP
C0
40
40
ENDCHAR
STARTCHAR quotedblleft
ENCODING 147
SWIDTH 500 0
DWIDTH 5 0
BBX 4 3 1 5
BITMAP
A0
A0
F0
ENDCHAR
STARTCHAR quotedblright
ENCODING 148
SWIDTH 500 0
DWIDTH 5 0
BBX 4 3 1 5
BITMAP
F0
50
50
ENDCHAR
STARTCHAR bullet
ENCODING 149
SWIDTH 400 0
DWIDTH 4 0
BBX 3 5 1 1
BITMAP
40
E0
E0
E0
40
ENDCHAR
STARTCHAR endash
ENCODING 150
SWIDTH 600 0
DWIDTH 6 0
BBX 5 1 1 2
BITMAP
F8
ENDCHAR
STARTCHAR emdash
ENCODING 151
SWIDTH 800 0
DWIDTH 8 0
BBX 7 1 1 2
BITMAP
FE
ENDCHAR
STARTCHAR sterling
ENCODING 152
SWIDTH 600 0
DWIDTH 6 0
BBX 5 8 1 0
BITMAP
30
48
48
40
E0
40
60
98
ENDCHAR
STARTCHAR periodcentered
ENCODING 153
SWIDTH 200 0
DWIDTH 2 0
BBX 1 2 1 3
BITMAP
80
80
ENDCHAR
STARTCHAR afii10106
ENCODING 154
SWIDTH 700 0
DWIDTH 7 0
BBX 6 6 1 0
BITMAP
30
50
58
54
54
98
ENDCHAR
STARTCHAR guilsinglright
ENCODING 155
SWIDTH 400 0
DWIDTH 4 0
BBX 3 5 1 0
BITMAP
80
40
60
40
80
ENDCHAR
STARTCHAR afii10107
ENCODING 156
SWIDTH 600 0
DWIDTH 6 0
BBX 5 6 1 0
BITMAP
A0
A0
F0
A8
A8
B0
ENDCHAR
STARTCHAR afii10109
ENCODING 157
SWIDTH 400 0
DWIDTH 4 0
BBX 3 8 1 0
BITMAP
20
40
A0
A0
C0
A0
A0
A0
ENDCHAR
STARTCHAR afii10108
ENCODING 158
SWIDTH 500 0
DWIDTH 5 0
BBX 5 9 0 0
BITMAP
40
F0
40
70
48
48
48
48
48
ENDCHAR
STARTCHAR afii10193
ENCODING 159
SWIDTH 500 0
DWIDTH 5 0
BBX 4 8 1 -2
BITMAP
90
90
90
90
90
F0
60
60
ENDCHAR
STARTCHAR space
ENCODING 160
SWIDTH 200 0
DWIDTH 2 0
BBX 0 0 0 0
BITMAP
ENDCHAR
STARTCHAR afii10196
ENCODING 161
SWIDTH 400 0
DWIDTH 4 0
BBX 3 6 1 0
BITMAP
80
A0
A0
A0
40
40
ENDCHAR
STARTCHAR afii10194
ENCODING 162
SWIDTH 500 0
DWIDTH 5 0
BBX 5 7 0 0
BITMAP
40
E0
40
70
48
48
70
ENDCHAR
STARTCHAR afii10071
ENCODING 163
SWIDTH 500 0
DWIDTH 5 0
BBX 4 7 1 0
BITMAP
90
60
90
E0
80
90
60
ENDCHAR
STARTCHAR afii10101
ENCODING 164
SWIDTH 600 0
DWIDTH 6 0
BBX 5 6 1 0
BITMAP
70
88
E0
80
88
70
ENDCHAR
STARTCHAR afii10102
ENCODING 165
SWIDTH 400 0
DWIDTH 4 0
BBX 3 6 1 0
BITMAP
60
80
40
20
20
C0
ENDCHAR
STARTCHAR afii10103
ENCODING 166
SWIDTH 200 0
DWIDTH 2 0
BBX 1 8 1 0
BITMAP
80
00
80
80
80
80
80
80
ENDCHAR
STARTCHAR afii10104
ENCODING 167
SWIDTH 300 0
DWIDTH 3 0
BBX 3 8 0 0
BITMAP
A0
00
40
40
40
40
40
40
ENDCHAR
STARTCHAR afii10105
ENCODING 168
SWIDTH 200 0
DWIDTH 2 0
BBX 2 10 0 -2
BITMAP
40
00
40
40
40
40
40
40
40
C0
ENDCHAR
STARTCHAR registered
ENCODING 169
SWIDTH 700 0
DWIDTH 7 0
BBX 7 8 0 0
BITMAP
38
44
B2
AA
BA
A6
44
38
ENDCHAR
STARTCHAR trademark
ENCODING 170
SWIDTH 800 0
DWIDTH 8 0
BBX 7 4 1 5
BITMAP
F2
5E
52
52
ENDCHAR
STARTCHAR guillemotleft
ENCODING 171
SWIDTH 500 0
DWIDTH 5 0
BBX 5 5 0 0
BITMAP
28
50
A0
50
28
ENDCHAR
STARTCHAR afii10195
ENCODING 172
SWIDTH 500 0
DWIDTH 5 0
BBX 4 6 1 0
BITMAP
60
90
F0
90
90
60
ENDCHAR
STARTCHAR afii10098
ENCODING 173
SWIDTH 400 0
DWIDTH 4 0
BBX 3 7 1 0
BITMAP
20
E0
80
80
80
80
80
ENDCHAR
STARTCHAR afii10110
ENCODING 174
SWIDTH 400 0
DWIDTH 4 0
BBX 3 11 1 -2
BITMAP
A0
40
00
A0
A0
A0
A0
A0
40
40
80
ENDCHAR
STARTCHAR acute
ENCODING 175
SWIDTH 400 0
DWIDTH 4 0
BBX 3 3 1 5
BITMAP
20
40
80
ENDCHAR
STARTCHAR degree
ENCODING 176
SWIDTH 400 0
DWIDTH 4 0
BBX 3 3 1 5
BITMAP
40
A0
40
ENDCHAR
STARTCHAR afii10148
ENCODING 177
SWIDTH 700 0
DWIDTH 7 0
BBX 6 8 1 0
BITMAP
80
8C
88
50
50
50
20
20
ENDCHAR
STARTCHAR afii10146
ENCODING 178
SWIDTH 700 0
DWIDTH 7 0
BBX 7 9 0 0
BITMAP
20
20
F8
20
3C
22
22
22
3C
ENDCHAR
STARTCHAR afii10023
ENCODING 179
SWIDTH 500 0
DWIDTH 5 0
BBX 4 10 1 0
BITMAP
90
00
F0
80
80
F0
80
80
80
F0
ENDCHAR
STARTCHAR afii10053
ENCODING 180
SWIDTH 600 0
DWIDTH 6 0
BBX 5 8 1 0
BITMAP
70
88
88
E0
80
88
88
70
ENDCHAR
STARTCHAR afii10054
ENCODING 181
SWIDTH 500 0
DWIDTH 5 0
BBX 4 8 1 0
BITMAP
60
90
80
60
10
90
90
60
ENDCHAR
STARTCHAR afii10055
ENCODING 182
SWIDTH 200 0
DWIDTH 2 0
BBX 1 8 1 0
BITMAP
80
80
80
80
80
80
80
80
ENDCHAR
STARTCHAR afii10056
ENCODING 183
SWIDTH 300 0
DWIDTH 3 0
BBX 3 10 0 0
BITMAP
A0
00
40
40
40
40
40
40
40
40
ENDCHAR
STARTCHAR afii10057
ENCODING 184
SWIDTH 400 0
DWIDTH 4 0
BBX 3 8 1 0
BITMAP
20
20
20
20
20
A0
A0
40
ENDCHAR
STARTCHAR afii61352
ENCODING 185
SWIDTH 800 0
DWIDTH 8 0
BBX 7 8 1 0
BITMAP
8E
8A
CE
A8
AE
98
88
88
ENDCHAR
STARTCHAR cent
ENCODING 186
SWIDTH 500 0
DWIDTH 5 0
BBX 4 8 1 -1
BITMAP
20
70
A0
A0
A0
A0
70
20
ENDCHAR
STARTCHAR guillemotright
ENCODING 187
SWIDTH 500 0
DWIDTH 5 0
BBX 5 5 0 0
BITMAP
A0
50
28
50
A0
ENDCHAR
STARTCHAR afii10147
ENCODING 188
SWIDTH 600 0
DWIDTH 6 0
BBX 5 8 1 0
BITMAP
70
88
88
F8
88
88
88
70
ENDCHAR
STARTCHAR afii10050
ENCODING 189
SWIDTH 500 0
DWIDTH 5 0
BBX 4 9 1 0
BITMAP
10
F0
80
80
80
80
80
80
80
ENDCHAR
STARTCHAR afii10062
ENCODING 190
SWIDTH 600 0
DWIDTH 6 0
BBX 5 10 1 0
BITMAP
50
20
88
88
88
88
78
08
08
70
ENDCHAR
STARTCHAR copyright
ENCODING 191
SWIDTH 700 0
DWIDTH 7 0
BBX 7 8 0 0
BITMAP
38
44
9A
A2
A2
9A
44
38
ENDCHAR
STARTCHAR afii10096
ENCODING 192
SWIDTH 700 0
DWIDTH 7 0
BBX 6 6 1 0
BITMAP
98
A4
E4
A4
A4
98
ENDCHAR
STARTCHAR afii10065
ENCODING 193
SWIDTH 400 0
DWIDTH 4 0
BBX 3 6 1 0
BITMAP
C0
20
60
A0
A0
60
ENDCHAR
STARTCHAR afii10066
ENCODING 194
SWIDTH 500 0
DWIDTH 5 0
BBX 4 9 1 0
BITMAP
30
40
80
E0
90
90
90
90
60
ENDCHAR
STARTCHAR afii10088
ENCODING 195
SWIDTH 600 0
DWIDTH 6 0
BBX 5 7 1 -1
BITMAP
90
90
90
90
90
F8
08
ENDCHAR
STARTCHAR afii10069
ENCODING 196
SWIDTH 700 0
DWIDTH 7 0
BBX 6 7 1 -1
BITMAP
38
28
28
28
48
FC
84
ENDCHAR
STARTCHAR afii10070
ENCODING 197
SWIDTH 500 0
DWIDTH 5 0
BBX 4 6 1 0
BITMAP
60
90
E0
80
90
60
ENDCHAR
STARTCHAR afii10086
ENCODING 198
SWIDTH 600 0
DWIDTH 6 0
BBX 5 10 1 -2
BITMAP
20
20
70
A8
A8
A8
A8
70
20
20
ENDCHAR
STARTCHAR afii10068
ENCODING 199
SWIDTH 400 0
DWIDTH 4 0
BBX 3 6 1 0
BITMAP
E0
80
80
80
80
80
ENDCHAR
STARTCHAR afii10087
ENCODING 200
SWIDTH 400 0
DWIDTH 4 0
BBX 3 6 1 0
BITMAP
A0
A0
40
40
A0
A0
ENDCHAR
STARTCHAR afii10074
ENCODING 201
SWIDTH 500 0
DWIDTH 5 0
BBX 4 6 1 0
BITMAP
90
90
90
B0
D0
90
ENDCHAR
STARTCHAR afii10075
ENCODING 202
SWIDTH 500 0
DWIDTH 5 0
BBX 4 8 1 0
BITMAP
60
00
90
90
90
B0
D0
90
ENDCHAR
STARTCHAR afii10076
ENCODING 203
SWIDTH 400 0
DWIDTH 4 0
BBX 3 6 1 0
BITMAP
A0
A0
C0
A0
A0
A0
ENDCHAR
STARTCHAR afii10077
ENCODING 204
SWIDTH 500 0
DWIDTH 5 0
BBX 4 6 1 0
BITMAP
30
50
50
50
50
90
ENDCHAR
STARTCHAR afii10078
ENCODING 205
SWIDTH 600 0
DWIDTH 6 0
BBX 5 6 1 0
BITMAP
88
D8
A8
A8
88
88
ENDCHAR
STARTCHAR afii10079
ENCODING 206
SWIDTH 500 0
DWIDTH 5 0
BBX 4 6 1 0
BITMAP
90
90
F0
90
90
90
ENDCHAR
STARTCHAR afii10080
ENCODING 207
SWIDTH 500 0
DWIDTH 5 0
BBX 4 6 1 0
BITMAP
60
90
90
90
90
60
ENDCHAR
STARTCHAR afii10081
ENCODING 208
SWIDTH 500 0
DWIDTH 5 0
BBX 4 6 1 0
BITMAP
F0
90
90
90
90
90
ENDCHAR
STARTCHAR afii10097
ENCODING 209
SWIDTH 500 0
DWIDTH 5 0
BBX 4 6 1 0
BITMAP
70
90
90
70
50
90
ENDCHAR
STARTCHAR afii10082
ENCODING 210
SWIDTH 500 0
DWIDTH 5 0
BBX 4 8 1 -2
BITMAP
E0
90
90
90
90
E0
80
80
ENDCHAR
STARTCHAR afii10083
ENCODING 211
SWIDTH 500 0
DWIDTH 5 0
BBX 4 6 1 0
BITMAP
60
90
80
80
90
60
ENDCHAR
STARTCHAR afii10084
ENCODING 212
SWIDTH 400 0
DWIDTH 4 0
BBX 3 6 1 0
BITMAP
E0
40
40
40
40
40
ENDCHAR
STARTCHAR afii10085
ENCODING 213
SWIDTH 400 0
DWIDTH 4 0
BBX 3 8 1 -2
BITMAP
A0
A0
A0
A0
A0
40
40
80
ENDCHAR
STARTCHAR afii10072
ENCODING 214
SWIDTH 800 0
DWIDTH 8 0
BBX 7 6 1 0
BITMAP
92
54
38
7C
92
92
ENDCHAR
STARTCHAR afii10067
ENCODING 215
SWIDTH 500 0
DWIDTH 5 0
BBX 4 6 1 0
BITMAP
E0
90
E0
90
90
E0
ENDCHAR
STARTCHAR afii10094
ENCODING 216
SWIDTH 500 0
DWIDTH 5 0
BBX 4 6 1 0
BITMAP
80
80
E0
90
90
E0
ENDCHAR
STARTCHAR afii10093
ENCODING 217
SWIDTH 600 0
DWIDTH 6 0
BBX 5 6 1 0
BITMAP
88
88
C8
A8
A8
C8
ENDCHAR
STARTCHAR afii10073
ENCODING 218
SWIDTH 600 0
DWIDTH 6 0
BBX 5 6 1 0
BITMAP
70
88
30
08
88
70
ENDCHAR
STARTCHAR afii10090
ENCODING 219
SWIDTH 600 0
DWIDTH 6 0
BBX 5 6 1 0
BITMAP
A8
A8
A8
A8
A8
F8
ENDCHAR
STARTCHAR afii10095
ENCODING 220
SWIDTH 600 0
DWIDTH 6 0
BBX 5 6 1 0
BITMAP
70
88
38
08
88
70
ENDCHAR
STARTCHAR afii10091
ENCODING 221
SWIDTH 700 0
DWIDTH 7 0
BBX 6 7 1 -1
BITMAP
A8
A8
A8
A8
A8
FC
04
ENDCHAR
STARTCHAR afii10089
ENCODING 222
SWIDTH 500 0
DWIDTH 5 0
BBX 4 6 1 0
BITMAP
90
90
90
70
10
10
ENDCHAR
STARTCHAR afii10092
ENCODING 223
SWIDTH 500 0
DWIDTH 5 0
BBX 5 6 0 0
BITMAP
C0
40
70
48
48
70
ENDCHAR
STARTCHAR afii10048
ENCODING 224
SWIDTH 800 0
DWIDTH 8 0
BBX 7 8 1 0
BITMAP
9C
A2
A2
E2
A2
A2
A2
9C
ENDCHAR
STARTCHAR afii10017
ENCODING 225
SWIDTH 600 0
DWIDTH 6 0
BBX 5 8 1 0
BITMAP
20
20
50
50
50
70
88
88
ENDCHAR
STARTCHAR afii10018
ENCODING 226
SWIDTH 600 0
DWIDTH 6 0
BBX 5 8 1 0
BITMAP
F8
80
80
F0
88
88
88
F0
ENDCHAR
STARTCHAR afii10040
ENCODING 227
SWIDTH 700 0
DWIDTH 7 0
BBX 6 9 1 -1
BITMAP
88
88
88
88
88
88
88
FC
04
ENDCHAR
STARTCHAR afii10021
ENCODING 228
SWIDTH 700 0
DWIDTH 7 0
BBX 6 9 1 -1
BITMAP
38
28
28
28
28
28
48
FC
84
ENDCHAR
STARTCHAR afii10022
ENCODING 229
SWIDTH 500 0
DWIDTH 5 0
BBX 4 8 1 0
BITMAP
F0
80
80
F0
80
80
80
F0
ENDCHAR
STARTCHAR afii10038
ENCODING 230
SWIDTH 800 0
DWIDTH 8 0
BBX 7 8 1 0
BITMAP
10
7C
92
92
92
92
7C
10
ENDCHAR
STARTCHAR afii10020
ENCODING 231
SWIDTH 500 0
DWIDTH 5 0
BBX 4 8 1 0
BITMAP
F0
80
80
80
80
80
80
80
ENDCHAR
STARTCHAR afii10039
ENCODING 232
SWIDTH 600 0
DWIDTH 6 0
BBX 5 8 1 0
BITMAP
88
50
50
20
20
50
50
88
ENDCHAR
STARTCHAR afii10026
ENCODING 233
SWIDTH 600 0
DWIDTH 6 0
BBX 5 8 1 0
BITMAP
88
88
98
A8
A8
C8
88
88
ENDCHAR
STARTCHAR afii10027
ENCODING 234
SWIDTH 600 0
DWIDTH 6 0
BBX 5 10 1 0
BITMAP
70
00
88
88
98
A8
A8
C8
88
88
ENDCHAR
STARTCHAR afii10028
ENCODING 235
SWIDTH 500 0
DWIDTH 5 0
BBX 4 8 1 0
BITMAP
90
A0
A0
C0
A0
A0
90
90
ENDCHAR
STARTCHAR afii10029
ENCODING 236
SWIDTH 600 0
DWIDTH 6 0
BBX 5 8 1 0
BITMAP
38
48
48
48
48
48
48
88
ENDCHAR
STARTCHAR afii10030
ENCODING 237
SWIDTH 600 0
DWIDTH 6 0
BBX 5 8 1 0
BITMAP
88
D8
A8
A8
A8
A8
88
88
ENDCHAR
STARTCHAR afii10031
ENCODING 238
SWIDTH 600 0
DWIDTH 6 0
BBX 5 8 1 0
BITMAP
88
88
88
F8
88
88
88
88
ENDCHAR
STARTCHAR afii10032
ENCODING 239
SWIDTH 600 0
DWIDTH 6 0
BBX 5 8 1 0
BITMAP
70
88
88
88
88
88
88
70
ENDCHAR
STARTCHAR afii10033
ENCODING 240
SWIDTH 600 0
DWIDTH 6 0
BBX 5 8 1 0
BITMAP
F8
88
88
88
88
88
88
88
ENDCHAR
STARTCHAR afii10049
ENCODING 241
SWIDTH 600 0
DWIDTH 6 0
BBX 5 8 1 0
BITMAP
78
88
88
88
78
28
48
88
ENDCHAR
STARTCHAR afii10034
ENCODING 242
SWIDTH 500 0
DWIDTH 5 0
BBX 4 8 1 0
BITMAP
E0
90
90
90
E0
80
80
80
ENDCHAR
STARTCHAR afii10035
ENCODING 243
SWIDTH 600 0
DWIDTH 6 0
BBX 5 8 1 0
BITMAP
70
88
80
80
80
88
88
70
ENDCHAR
STARTCHAR afii10036
ENCODING 244
SWIDTH 400 0
DWIDTH 4 0
BBX 3 8 1 0
BITMAP
E0
40
40
40
40
40
40
40
ENDCHAR
STARTCHAR afii10037
ENCODING 245
SWIDTH 600 0
DWIDTH 6 0
BBX 5 8 1 0
BITMAP
88
88
88
88
78
08
08
70
ENDCHAR
STARTCHAR afii10024
ENCODING 246
SWIDTH 800 0
DWIDTH 8 0
BBX 7 8 1 0
BITMAP
92
92
54
38
38
54
92
92
ENDCHAR
STARTCHAR afii10019
ENCODING 247
SWIDTH 600 0
DWIDTH 6 0
BBX 5 8 1 0
BITMAP
F0
88
88
F0
88
88
88
F0
ENDCHAR
STARTCHAR afii10046
ENCODING 248
SWIDTH 600 0
DWIDTH 6 0
BBX 5 8 1 0
BITMAP
80
80
80
F0
88
88
88
F0
ENDCHAR
STARTCHAR afii10045
ENCODING 249
SWIDTH 800 0
DWIDTH 8 0
BBX 7 8 1 0
BITMAP
82
82
82
F2
8A
8A
8A
F2
ENDCHAR
STARTCHAR afii10025
ENCODING 250
SWIDTH 600 0
DWIDTH 6 0
BBX 5 8 1 0
BITMAP
70
88
08
30
08
08
88
70
ENDCHAR
STARTCHAR afii10042
ENCODING 251
SWIDTH 800 0
DWIDTH 8 0
BBX 7 8 1 0
BITMAP
92
92
92
92
92
92
92
FE
ENDCHAR
STARTCHAR afii10047
ENCODING 252
SWIDTH 600 0
DWIDTH 6 0
BBX 5 8 1 0
BITMAP
70
88
88
38
08
88
88
70
ENDCHAR
STARTCHAR afii10043
ENCODING 253
SWIDTH 900 0
DWIDTH 9 0
BBX 8 9 1 -1
BITMAP
92
92
92
92
92
92
92
FF
01
ENDCHAR
STARTCHAR afii10041
ENCODING 254
SWIDTH 600 0
DWIDTH 6 0
BBX 5 8 1 0
BITMAP
88
88
88
88
78
08
08
08
ENDCHAR
STARTCHAR afii10044
ENCODING 255
SWIDTH 700 0
DWIDTH 7 0
BBX 7 8 0 0
BITMAP
E0
20
20
3C
22
22
22
3C
ENDCHAR
ENDFONT
